<?xml version="1.0" encoding="UTF-8" standalone="no"?>
<!-- Created with Inkscape (http://www.inkscape.org/) -->

<svg
   xmlns:dc="http://purl.org/dc/elements/1.1/"
   xmlns:cc="http://creativecommons.org/ns#"
   xmlns:rdf="http://www.w3.org/1999/02/22-rdf-syntax-ns#"
   xmlns:svg="http://www.w3.org/2000/svg"
   xmlns="http://www.w3.org/2000/svg"
   xmlns:sodipodi="http://sodipodi.sourceforge.net/DTD/sodipodi-0.dtd"
   xmlns:inkscape="http://www.inkscape.org/namespaces/inkscape"
   width="30"
   height="30"
   id="svg2"
   version="1.1"
   inkscape:version="0.48.4 r9939"
   sodipodi:docname="bacon.svg"
   inkscape:export-filename="/home/biscott/git/g3/assets/bacon.png"
   inkscape:export-xdpi="90"
   inkscape:export-ydpi="90">
  <defs
     id="defs4" />
  <sodipodi:namedview
     id="base"
     pagecolor="#ffffff"
     bordercolor="#666666"
     borderopacity="1.0"
     inkscape:pageopacity="0.0"
     inkscape:pageshadow="2"
     inkscape:zoom="11.2"
     inkscape:cx="8.8007047"
     inkscape:cy="4.7010539"
     inkscape:document-units="px"
     inkscape:current-layer="layer1"
     showgrid="false"
     inkscape:window-width="1215"
     inkscape:window-height="1000"
     inkscape:window-x="65"
     inkscape:window-y="24"
     inkscape:window-maximized="1" />
  <metadata
     id="metadata7">
    <rdf:RDF>
      <cc:Work
         rdf:about="">
        <dc:format>image/svg+xml</dc:format>
        <dc:type
           rdf:resource="http://purl.org/dc/dcmitype/StillImage" />
        <dc:title></dc:title>
      </cc:Work>
    </rdf:RDF>
  </metadata>
  <g
     inkscape:label="Layer 1"
     inkscape:groupmode="layer"
     id="layer1"
     transform="translate(0,-1022.3622)">
    <path
       style="fill:none;stroke:#7e1d1d;stroke-width:1.97717333;stroke-linecap:butt;stroke-linejoin:miter;stroke-miterlimit:4;stroke-opacity:1;stroke-dasharray:none"
       d="m 1.0040393,1025.6219 c 0,0 2.0626424,-1.8427 4.7870714,-1.798 2.0037434,0.033 2.27927,1.6668 4.4743923,1.7134 2.403358,0.051 1.264671,-1.8452 5.03003,-1.9331 3.765358,-0.088 4.498899,1.8037 7.439722,2.0203 2.940824,0.2166 4.503257,-2.47 6.443167,-1.6256"
       id="path2985"
       inkscape:connector-curvature="0"
       sodipodi:nodetypes="csszsc" />
    <path
       style="fill:none;stroke:#dfda56;stroke-width:1.06175566;stroke-linecap:butt;stroke-linejoin:miter;stroke-miterlimit:4;stroke-opacity:1;stroke-dasharray:none"
       d="m 1.1418717,1027.0713 c 0,0 2.0626424,-1.8427 4.7870714,-1.798 2.0037434,0.034 2.27927,1.6666 4.4743919,1.7133 2.403359,0.051 1.264672,-1.8451 5.030031,-1.933 3.765358,-0.088 4.498897,1.8037 7.439723,2.0203 2.940823,0.2164 4.503255,-2.4701 6.443165,-1.6257"
       id="path2985-3"
       inkscape:connector-curvature="0"
       sodipodi:nodetypes="csszsc" />
    <path
       style="fill:none;stroke:#7e1d1d;stroke-width:1.77945602;stroke-linecap:butt;stroke-linejoin:miter;stroke-miterlimit:4;stroke-opacity:1;stroke-dasharray:none"
       d="m 1.4034757,1028.3044 c 0,0 2.0626425,-1.8427 4.7870706,-1.7979 2.0037441,0.034 2.2792701,1.6667 4.4743937,1.7133 2.403358,0.051 1.264672,-1.8451 5.030031,-1.933 3.765357,-0.088 4.498897,1.8036 7.439722,2.0202 2.940824,0.2166 4.503255,-2.4699 6.443165,-1.6256"
       id="path2985-1"
       inkscape:connector-curvature="0"
       sodipodi:nodetypes="csszsc" />
    <path
       style="fill:none;stroke:#7e1d1d;stroke-width:1.97717333;stroke-linecap:butt;stroke-linejoin:miter;stroke-miterlimit:4;stroke-opacity:1;stroke-dasharray:none"
       d="m 0.94361781,1033.5 c 0,0 2.06264269,-1.8427 4.78707169,-1.798 2.0037436,0.033 2.2792702,1.6669 4.4743925,1.7134 2.403358,0.051 1.26467,-1.8451 5.03003,-1.933 3.765357,-0.088 4.498898,1.8037 7.439722,2.0202 2.940823,0.2166 4.503256,-2.47 6.443166,-1.6255"
       id="path2985-0"
       inkscape:connector-curvature="0"
       sodipodi:nodetypes="csszsc" />
    <path
       style="fill:none;stroke:#dfda56;stroke-width:1.06175566;stroke-linecap:butt;stroke-linejoin:miter;stroke-miterlimit:4;stroke-opacity:1;stroke-dasharray:none"
       d="m 1.08145,1034.9494 c 0,0 2.0626427,-1.8427 4.7870717,-1.798 2.0037435,0.034 2.2792702,1.6668 4.4743923,1.7134 2.403358,0.051 1.264671,-1.8451 5.03003,-1.9331 3.765359,-0.088 4.498897,1.8037 7.439723,2.0203 2.940823,0.2165 4.503255,-2.47 6.443166,-1.6256"
       id="path2985-3-1"
       inkscape:connector-curvature="0"
       sodipodi:nodetypes="csszsc" />
    <path
       style="fill:none;stroke:#7e1d1d;stroke-width:1.77945602;stroke-linecap:butt;stroke-linejoin:miter;stroke-miterlimit:4;stroke-opacity:1;stroke-dasharray:none"
       d="m 1.3430545,1036.1825 c 0,0 2.0626426,-1.8427 4.7870707,-1.7979 2.0037435,0.034 2.2792702,1.6668 4.4743938,1.7133 2.403357,0.051 1.264671,-1.845 5.03003,-1.933 3.765358,-0.088 4.498897,1.8036 7.439722,2.0202 2.940824,0.2166 4.503255,-2.4699 6.443166,-1.6255"
       id="path2985-1-9"
       inkscape:connector-curvature="0"
       sodipodi:nodetypes="csszsc" />
    <path
       style="fill:none;stroke:#7e1d1d;stroke-width:1.97717333;stroke-linecap:butt;stroke-linejoin:miter;stroke-miterlimit:4;stroke-opacity:1;stroke-dasharray:none"
       d="m 1.2052211,1040.4688 c 0,0 2.0626427,-1.8427 4.7870717,-1.798 2.0037436,0.033 2.2792703,1.6669 4.4743922,1.7134 2.403359,0.051 1.264671,-1.8451 5.03003,-1.9329 3.765358,-0.088 4.498898,1.8037 7.439723,2.0201 2.940823,0.2166 4.503255,-2.47 6.443166,-1.6255"
       id="path2985-14"
       inkscape:connector-curvature="0"
       sodipodi:nodetypes="csszsc" />
    <path
       style="fill:none;stroke:#dfda56;stroke-width:1.06175566;stroke-linecap:butt;stroke-linejoin:miter;stroke-miterlimit:4;stroke-opacity:1;stroke-dasharray:none"
       d="m 1.3430543,1041.9182 c 0,0 2.0626416,-1.8427 4.7870707,-1.798 2.0037435,0.034 2.2792702,1.6668 4.474393,1.7134 2.403357,0.051 1.264671,-1.8451 5.03003,-1.9331 3.765359,-0.088 4.498897,1.8038 7.439722,2.0203 2.940824,0.2165 4.503255,-2.47 6.443166,-1.6256"
       id="path2985-3-11"
       inkscape:connector-curvature="0"
       sodipodi:nodetypes="csszsc" />
    <path
       style="fill:none;stroke:#7e1d1d;stroke-width:1.77945602;stroke-linecap:butt;stroke-linejoin:miter;stroke-miterlimit:4;stroke-opacity:1;stroke-dasharray:none"
       d="m 1.6046578,1043.1513 c 0,0 2.0626426,-1.8427 4.7870707,-1.7979 2.0037445,0.034 2.2792702,1.6668 4.4743925,1.7133 2.403359,0.051 1.264672,-1.845 5.030032,-1.9328 3.765358,-0.088 4.498897,1.8036 7.439722,2.02 2.940823,0.2166 4.503255,-2.4699 6.443165,-1.6255"
       id="path2985-1-7"
       inkscape:connector-curvature="0"
       sodipodi:nodetypes="csszsc" />
    <path
       style="fill:none;stroke:#7e1d1d;stroke-width:1.97717333;stroke-linecap:butt;stroke-linejoin:miter;stroke-miterlimit:4;stroke-opacity:1;stroke-dasharray:none"
       d="m 0.94361782,1048.5099 c 0,0 2.06264238,-1.8427 4.78707148,-1.798 2.0037434,0.033 2.27927,1.6669 4.4743927,1.7134 2.403358,0.051 1.26467,-1.8451 5.03003,-1.9331 3.765357,-0.088 4.498898,1.8037 7.439722,2.0203 2.940823,0.2166 4.503256,-2.47 6.443166,-1.6255"
       id="path2985-9"
       inkscape:connector-curvature="0"
       sodipodi:nodetypes="csszsc" />
    <path
       style="fill:none;stroke:#dfda56;stroke-width:1.06175566;stroke-linecap:butt;stroke-linejoin:miter;stroke-miterlimit:4;stroke-opacity:1;stroke-dasharray:none"
       d="m 1.0814502,1049.9593 c 0,0 2.0626424,-1.8427 4.7870715,-1.798 2.0037433,0.034 2.2792699,1.6667 4.4743923,1.7134 2.403358,0.051 1.264671,-1.8452 5.03003,-1.9331 3.765359,-0.088 4.498897,1.8037 7.439723,2.0203 2.940823,0.2165 4.503255,-2.47 6.443166,-1.6257"
       id="path2985-3-4"
       inkscape:connector-curvature="0"
       sodipodi:nodetypes="csszsc" />
    <path
       style="fill:none;stroke:#7e1d1d;stroke-width:1.77945602;stroke-linecap:butt;stroke-linejoin:miter;stroke-miterlimit:4;stroke-opacity:1;stroke-dasharray:none"
       d="m 1.3430542,1051.1924 c 0,0 2.0626425,-1.8427 4.7870706,-1.7979 2.0037442,0.034 2.2792701,1.6667 4.4743942,1.7133 2.403357,0.051 1.264671,-1.8451 5.03003,-1.933 3.765358,-0.088 4.498897,1.8036 7.439722,2.0202 2.940824,0.2166 4.503255,-2.4699 6.443166,-1.6256"
       id="path2985-1-4"
       inkscape:connector-curvature="0"
       sodipodi:nodetypes="csszsc" />
  </g>
</svg>
