<?xml version="1.0" encoding="UTF-8" standalone="no"?>
<!-- Created with Inkscape (http://www.inkscape.org/) -->

<svg
   xmlns:dc="http://purl.org/dc/elements/1.1/"
   xmlns:cc="http://creativecommons.org/ns#"
   xmlns:rdf="http://www.w3.org/1999/02/22-rdf-syntax-ns#"
   xmlns:svg="http://www.w3.org/2000/svg"
   xmlns="http://www.w3.org/2000/svg"
   xmlns:xlink="http://www.w3.org/1999/xlink"
   xmlns:sodipodi="http://sodipodi.sourceforge.net/DTD/sodipodi-0.dtd"
   xmlns:inkscape="http://www.inkscape.org/namespaces/inkscape"
   width="744.09448819"
   height="1052.3622047"
   id="svg2"
   version="1.1"
   inkscape:version="0.48.4 r9939"
   sodipodi:docname="New document 1">
  <defs
     id="defs4" />
  <sodipodi:namedview
     id="base"
     pagecolor="#ffffff"
     bordercolor="#666666"
     borderopacity="1.0"
     inkscape:pageopacity="0.0"
     inkscape:pageshadow="2"
     inkscape:zoom="0.28890007"
     inkscape:cx="222.00508"
     inkscape:cy="-75.448835"
     inkscape:document-units="px"
     inkscape:current-layer="layer1"
     showgrid="false"
     inkscape:window-width="1215"
     inkscape:window-height="1000"
     inkscape:window-x="65"
     inkscape:window-y="24"
     inkscape:window-maximized="1" />
  <metadata
     id="metadata7">
    <rdf:RDF>
      <cc:Work
         rdf:about="">
        <dc:format>image/svg+xml</dc:format>
        <dc:type
           rdf:resource="http://purl.org/dc/dcmitype/StillImage" />
        <dc:title></dc:title>
      </cc:Work>
    </rdf:RDF>
  </metadata>
  <g
     inkscape:label="Layer 1"
     inkscape:groupmode="layer"
     id="layer1">
    <path
       transform="translate(217.14286,637.14286)"
       style="fill:#eeb912;fill-opacity:1;stroke:none"
       d="m -211.42857,183.79075 c 0,0 -287.92933,-302.31415 -323.98452,-301.40299 -78.36991,1.98051 -137.46146,444.00358 -137.46146,444.00358 0,0 9.94644,-447.05963 -2.98425,-480.71028 C -705.32353,-230.99757 -1100,100.93361 -1100,100.93361 c 0,0 339.8082,-335.79295 335.68872,-395.41309 -4.61777,-66.83171 -478.28932,-66.03289 -478.28932,-66.03289 0,0 474.8671,-13.80669 480.71031,-51.55568 7.43682,-48.04423 -255.25251,-375.56975 -255.25251,-375.56975 0,0 255.53075,304.20377 358.2702,258.54584 102.73944,-45.65793 103.17574,-401.14643 103.17574,-401.14643 0,0 5.87791,379.413 28.69854,432.13885 41.99832,97.03487 398.42689,-206.68111 398.42689,-206.68111 0,0 -320.82633,303.28489 -321.40299,332.55594 -1.72106,87.36058 464.003581,128.89003 464.003581,128.89003 0,0 -438.181541,-32.55779 -452.138851,-11.30146 -63.73207,97.061 226.68112,438.42689 226.68112,438.42689 z"
       id="path3755"
       inkscape:connector-curvature="0"
       sodipodi:nodetypes="cscscscsczcscscsc" />
    <path
       style="fill:#eedf12;fill-opacity:1;stroke:none"
       d="m -188.25034,563.04312 c 0,0 -145.21517,-152.47006 -163.39936,-152.01052 -39.52532,0.99886 -69.32774,223.93015 -69.32774,223.93015 0,0 5.01642,-225.47145 -1.50509,-242.44292 -14.86033,-38.67234 -213.91271,128.73487 -213.91271,128.73487 0,0 171.37995,-169.35487 169.30231,-199.42388 -2.32894,-33.70611 -241.22194,-33.30324 -241.22194,-33.30324 0,0 239.49597,-6.96331 242.44295,-26.00175 3.75071,-24.23078 -128.73485,-189.416033 -128.73485,-189.416033 0,0 128.87518,153.423083 180.69112,130.395823 51.81593,-23.02726 52.03597,-202.3154829 52.03597,-202.3154829 0,0 2.96449,191.3543729 14.47392,217.9462929 21.18156,48.93888 200.94389,-104.23819 200.94389,-104.23819 0,0 -161.80658,152.95965 -162.09741,167.72231 -0.86801,44.05971 234.017039,65.0048 234.017039,65.0048 0,0 -220.993879,-16.4203 -228.033149,-5.69982 -32.14283,48.95205 114.32505,221.11759 114.32505,221.11759 z"
       id="path3755-8"
       inkscape:connector-curvature="0"
       sodipodi:nodetypes="cscscscsczcscscsc" />
    <path
       style="fill:#eedf12;fill-opacity:1;stroke:none"
       inkscape:transform-center-x="40.249053"
       inkscape:transform-center-y="-61.715167"
       d="m 540,1092.3621 c 50.7727,494.7701 -423.06161,400.073 -271.92668,-42.2839 C 419.20825,607.72131 472.07986,295.26496 517.64097,300.36036 592.67824,382.2113 489.2273,597.59206 540,1092.3621 z"
       id="path4666"
       inkscape:connector-curvature="0"
       sodipodi:nodetypes="zzcz"
       inkscape:tile-cx="432.34666"
       inkscape:tile-cy="924.11877"
       inkscape:tile-w="307.82008"
       inkscape:tile-h="1124.2093"
       inkscape:tile-x0="238.18757"
       inkscape:tile-y0="300.29894" />
    <use
       x="0"
       y="0"
       inkscape:tiled-clone-of="#path4666"
       xlink:href="#path4666"
       id="use4669"
       inkscape:transform-center-x="40.249053"
       inkscape:transform-center-y="-61.715167"
       width="744.09448"
       height="1052.3622" />
    <use
       x="0"
       y="0"
       inkscape:tiled-clone-of="#path4666"
       xlink:href="#path4666"
       transform="translate(307.82008,1124.2093)"
       id="use4671"
       inkscape:transform-center-x="40.249053"
       inkscape:transform-center-y="-61.71519"
       width="744.09448"
       height="1052.3622" />
    <use
       x="0"
       y="0"
       inkscape:tiled-clone-of="#path4666"
       xlink:href="#path4666"
       transform="translate(615.64016,0)"
       id="use4673"
       inkscape:transform-center-x="40.249053"
       inkscape:transform-center-y="-61.715167"
       width="744.09448"
       height="1052.3622" />
    <use
       x="0"
       y="0"
       inkscape:tiled-clone-of="#path4666"
       xlink:href="#path4666"
       transform="translate(923.46024,1124.2093)"
       id="use4675"
       inkscape:transform-center-x="40.249053"
       inkscape:transform-center-y="-61.71519"
       width="744.09448"
       height="1052.3622" />
  </g>
</svg>
